<svg xmlns="http://www.w3.org/2000/svg" viewBox="0 0 256 256" role="img" aria-label="Zeus placeholder">
  <defs>
    <linearGradient id="zeusCape" x1="0" x2="1" y1="0" y2="1">
      <stop offset="0%" stop-color="#fff2b2"/>
      <stop offset="100%" stop-color="#e7a800"/>
    </linearGradient>
  </defs>
  <rect width="256" height="256" rx="24" fill="none"/>
  <rect x="48" y="120" width="160" height="92" rx="24" fill="#74512d"/>
  <rect x="28" y="96" width="28" height="120" rx="12" fill="#9a6b3d"/>
  <rect x="200" y="96" width="28" height="120" rx="12" fill="#9a6b3d"/>
  <circle cx="128" cy="76" r="34" fill="#f2d1a0"/>
  <path d="M87 78c14-34 68-34 82 0-10-7-20-10-41-10S97 71 87 78Z" fill="#fff4da"/>
  <path d="M97 102c10 18 52 18 62 0v57H97Z" fill="url(#zeusCape)"/>
  <path d="M70 200h116" stroke="#3e2a16" stroke-width="12" stroke-linecap="round"/>
  <path d="M180 116l22 18-18 8 10 18-22-6-8 18-6-22-22-2 16-16-8-20 20 8 16-18Z" fill="#ffe169"/>
</svg>